<svg xmlns="http://www.w3.org/2000/svg" width="147" height="24" viewBox="0 0 147 24" fill="none">
  <path d="M115.214 20.0013H87.4023V16.0026H111.241V14.0018H87.4023V4.00562H115.214V8.00429H91.3744V10.0041H115.214V20.0013Z" fill="#303030"/>
  <path d="M119.186 4.00562V14.0018H143.025V16.0026H119.186V20.0013H147V10.0041H123.16V8.00429H147V4.00562H119.186Z" fill="#303030"/>
  <path d="M3.95999 8.00528H23.827V10.0051H3.95999V8.00528ZM0 4.00464V20.0003H3.95999V14.0018H23.827V20.0003H27.8V4.00562L0 4.00464Z" fill="#303030"/>
  <path d="M83.4302 20.0013H55.6172V4.00562H83.4302V8.00429H59.5912V10.0041H83.4302V14.0018H59.5912V16.0026H83.4302V20.0013Z" fill="#303030"/>
  <path d="M50.8372 0L41.7242 9.17281L32.6111 0H26.9932L38.9171 12L26.9951 24H32.6132L41.7262 14.8271L50.8391 24H56.4582L44.5352 12L56.4582 0H50.8372Z" fill="#FF8034"/>
</svg>